<svg width="515" height="121" viewBox="0 0 515 121" fill="none" xmlns="http://www.w3.org/2000/svg">
<path d="M24.6582 95V32.4512H2.44141V24.541H55.6641V32.4512H33.4473V95H24.6582ZM71.4844 95.9766C66.7969 95.9766 62.679 94.9023 59.1309 92.7539C55.6152 90.6055 52.8646 87.5618 50.8789 83.623C48.9258 79.6517 47.9492 74.9805 47.9492 69.6094V69.5117C47.9492 64.1081 48.9258 59.4531 50.8789 55.5469C52.8646 51.6081 55.6152 48.5807 59.1309 46.4648C62.679 44.3164 66.7806 43.2422 71.4355 43.2422C76.123 43.2422 80.2246 44.3164 83.7402 46.4648C87.2884 48.5807 90.0391 51.6081 91.9922 55.5469C93.9779 59.4531 94.9707 64.1081 94.9707 69.5117V69.6094C94.9707 75.013 93.9779 79.6842 91.9922 83.623C90.0391 87.5618 87.3047 90.6055 83.7891 92.7539C80.2734 94.9023 76.1719 95.9766 71.4844 95.9766ZM71.5332 88.457C74.528 88.457 77.1159 87.7246 79.2969 86.2598C81.5104 84.7624 83.2194 82.6139 84.4238 79.8145C85.6608 76.9824 86.2793 73.5807 86.2793 69.6094V69.5117C86.2793 65.5404 85.6608 62.1549 84.4238 59.3555C83.2194 56.556 81.4941 54.4238 79.248 52.959C77.0345 51.4941 74.4303 50.7617 71.4355 50.7617C68.5059 50.7617 65.918 51.5104 63.6719 53.0078C61.4583 54.4727 59.7331 56.6048 58.4961 59.4043C57.2591 62.1712 56.6406 65.5404 56.6406 69.5117V69.6094C56.6406 73.5807 57.2591 76.9824 58.4961 79.8145C59.7331 82.6139 61.4583 84.7624 63.6719 86.2598C65.918 87.7246 68.5384 88.457 71.5332 88.457ZM103.564 95V44.2188H112.061V51.6406H112.256C113.395 49.1341 115.186 47.1159 117.627 45.5859C120.068 44.0234 122.917 43.2422 126.172 43.2422C128.483 43.2422 130.566 43.6328 132.422 44.4141C134.31 45.1628 135.938 46.2695 137.305 47.7344C138.672 49.1667 139.714 50.9245 140.43 53.0078H140.625C141.569 50.957 142.822 49.2155 144.385 47.7832C145.98 46.3184 147.803 45.1953 149.854 44.4141C151.937 43.6328 154.167 43.2422 156.543 43.2422C159.896 43.2422 162.809 43.9421 165.283 45.3418C167.757 46.709 169.678 48.6458 171.045 51.1523C172.412 53.6263 173.096 56.556 173.096 59.9414V95H164.6V61.8945C164.6 59.5508 164.176 57.5488 163.33 55.8887C162.516 54.2285 161.328 52.959 159.766 52.0801C158.203 51.2012 156.299 50.7617 154.053 50.7617C151.807 50.7617 149.821 51.2826 148.096 52.3242C146.37 53.3333 145.02 54.7493 144.043 56.5723C143.066 58.3626 142.578 60.4134 142.578 62.7246V95H134.082V60.9668C134.082 58.916 133.643 57.1257 132.764 55.5957C131.917 54.0658 130.713 52.8776 129.15 52.0312C127.62 51.1849 125.798 50.7617 123.682 50.7617C121.436 50.7617 119.434 51.3151 117.676 52.4219C115.951 53.4961 114.583 54.9609 113.574 56.8164C112.565 58.6719 112.061 60.7878 112.061 63.1641V95H103.564ZM323.389 96.1719C320.329 96.1719 317.611 95.7324 315.234 94.8535C312.858 93.9746 310.84 92.7376 309.18 91.1426C307.52 89.5475 306.217 87.6758 305.273 85.5273C304.329 83.3789 303.76 81.0352 303.564 78.4961L303.516 77.8125H312.305L312.354 78.3008C312.549 80.0586 313.07 81.6862 313.916 83.1836C314.762 84.6484 315.967 85.8366 317.529 86.748C319.092 87.627 321.029 88.0664 323.34 88.0664C327.246 88.0664 330.225 86.9434 332.275 84.6973C334.326 82.4186 335.352 79.1309 335.352 74.834V24.541H344.141V74.9316C344.141 79.3587 343.311 83.1673 341.65 86.3574C340.023 89.515 337.663 91.9401 334.57 93.6328C331.478 95.3255 327.751 96.1719 323.389 96.1719ZM377.393 95.9766C372.542 95.9766 368.359 94.9023 364.844 92.7539C361.361 90.6055 358.675 87.5781 356.787 83.6719C354.932 79.7331 354.004 75.1107 354.004 69.8047V69.7559C354.004 64.515 354.948 59.9089 356.836 55.9375C358.724 51.9336 361.377 48.8249 364.795 46.6113C368.213 44.3652 372.233 43.2422 376.855 43.2422C381.478 43.2422 385.449 44.3164 388.77 46.4648C392.122 48.5807 394.694 51.5592 396.484 55.4004C398.275 59.2415 399.17 63.7012 399.17 68.7793V71.9043H358.252V65.2637H394.971L390.674 71.416V68.1445C390.674 64.2057 390.072 60.9505 388.867 58.3789C387.695 55.8073 386.068 53.903 383.984 52.666C381.901 51.3965 379.508 50.7617 376.807 50.7617C374.105 50.7617 371.68 51.429 369.531 52.7637C367.383 54.0658 365.69 56.0189 364.453 58.623C363.216 61.1947 362.598 64.3685 362.598 68.1445V71.416C362.598 74.9967 363.2 78.0566 364.404 80.5957C365.641 83.1348 367.383 85.0879 369.629 86.4551C371.875 87.7897 374.528 88.457 377.588 88.457C379.736 88.457 381.657 88.1315 383.35 87.4805C385.042 86.8294 386.458 85.9342 387.598 84.7949C388.737 83.6556 389.551 82.3535 390.039 80.8887L390.186 80.4492H398.535L398.438 80.9375C398.014 83.0208 397.201 84.974 395.996 86.7969C394.824 88.6198 393.311 90.2311 391.455 91.6309C389.6 92.998 387.484 94.0723 385.107 94.8535C382.731 95.6022 380.16 95.9766 377.393 95.9766ZM407.764 95V44.2188H416.26V52.8125H416.455C417.301 49.8828 418.766 47.5553 420.85 45.8301C422.933 44.1048 425.407 43.2422 428.271 43.2422C429.02 43.2422 429.688 43.291 430.273 43.3887C430.892 43.4538 431.364 43.5189 431.689 43.584V51.8359C431.364 51.7057 430.778 51.5918 429.932 51.4941C429.118 51.3965 428.19 51.3477 427.148 51.3477C424.967 51.3477 423.047 51.8359 421.387 52.8125C419.759 53.7891 418.49 55.2051 417.578 57.0605C416.699 58.8835 416.26 61.0807 416.26 63.6523V95H407.764ZM438.623 95V44.2188H447.119V52.8125H447.314C448.161 49.8828 449.626 47.5553 451.709 45.8301C453.792 44.1048 456.266 43.2422 459.131 43.2422C459.88 43.2422 460.547 43.291 461.133 43.3887C461.751 43.4538 462.223 43.5189 462.549 43.584V51.8359C462.223 51.7057 461.637 51.5918 460.791 51.4941C459.977 51.3965 459.049 51.3477 458.008 51.3477C455.827 51.3477 453.906 51.8359 452.246 52.8125C450.618 53.7891 449.349 55.2051 448.438 57.0605C447.559 58.8835 447.119 61.0807 447.119 63.6523V95H438.623ZM475.83 112.09C475.016 112.09 474.186 112.041 473.34 111.943C472.526 111.878 471.842 111.797 471.289 111.699V104.766C471.647 104.831 472.054 104.896 472.51 104.961C472.998 105.026 473.503 105.059 474.023 105.059C476.725 105.059 478.874 104.587 480.469 103.643C482.096 102.699 483.415 100.794 484.424 97.9297L485.449 95.0488L466.602 44.2188H475.684L490.332 88.457L488.525 86.5039H491.064L489.258 88.457L503.955 44.2188H512.891L493.066 98.1738C491.862 101.396 490.511 104.033 489.014 106.084C487.516 108.135 485.71 109.648 483.594 110.625C481.478 111.602 478.89 112.09 475.83 112.09Z" fill="black"/>
<path d="M235.6 96.6C231.333 96.6 227.383 95.75 223.75 94.05C220.15 92.3167 217.267 89.8 215.1 86.5C212.933 83.1667 211.85 79.1333 211.85 74.4C211.85 68.7667 213.5 63.7833 216.8 59.45C220.133 55.1167 225.033 51.4 231.5 48.3C228.6 45.5 226.3 43.0167 224.6 40.85C222.9 38.65 221.667 36.5667 220.9 34.6C220.167 32.6333 219.8 30.6167 219.8 28.55C219.8 25.1167 220.617 22.0833 222.25 19.45C223.917 16.7833 226.15 14.7167 228.95 13.25C231.783 11.75 234.967 11 238.5 11C241.2 11 243.683 11.45 245.95 12.35C248.217 13.2167 250.167 14.4667 251.8 16.1C253.433 17.7 254.7 19.6 255.6 21.8C256.5 24 256.95 26.4 256.95 29C256.95 33.6 255.467 37.4333 252.5 40.5C249.533 43.5333 245.167 46.4333 239.4 49.2L263.7 75.65C264.367 74.9167 265.183 73.9167 266.15 72.65C267.117 71.3833 268.083 70.05 269.05 68.65C270.05 67.25 270.933 65.9833 271.7 64.85C272.467 63.7167 272.983 62.9167 273.25 62.45L276.75 65C275.583 67.1333 274.1 69.5333 272.3 72.2C270.5 74.8667 268.75 77.2167 267.05 79.25L281.35 95H274.65L263.4 82.5C259.3 87.0667 254.883 90.5667 250.15 93C245.45 95.4 240.6 96.6 235.6 96.6ZM235.95 91.6C240.15 91.6 244.283 90.5167 248.35 88.35C252.417 86.15 256.3 82.9667 260 78.8L234.6 51.45C228.967 54.1167 224.683 57.3667 221.75 61.2C218.85 65.0333 217.4 69.3 217.4 74C217.4 77.7667 218.25 80.9667 219.95 83.6C221.683 86.2333 223.95 88.2333 226.75 89.6C229.583 90.9333 232.65 91.6 235.95 91.6ZM236.25 46C239.617 44.3667 242.483 42.7667 244.85 41.2C247.25 39.6 249.067 37.8333 250.3 35.9C251.567 33.9333 252.2 31.5833 252.2 28.85C252.2 26.0833 251.583 23.6833 250.35 21.65C249.15 19.6167 247.517 18.05 245.45 16.95C243.417 15.85 241.133 15.3 238.6 15.3C236 15.3 233.667 15.8667 231.6 17C229.567 18.1333 227.95 19.7 226.75 21.7C225.583 23.7 225 25.9833 225 28.55C225 30.2833 225.317 31.9667 225.95 33.6C226.617 35.2 227.767 36.9833 229.4 38.95C231.033 40.8833 233.317 43.2333 236.25 46Z" fill="black"/>
</svg>
