<svg width="400" height="400" viewBox="0 0 400 400" fill="none" xmlns="http://www.w3.org/2000/svg">
<rect x="2" y="2" width="396" height="396" rx="38" fill="#F6F6F6" stroke="black" stroke-width="4"/>
<path d="M172.316 248V122.902H127.883V107.082H234.328V122.902H189.895V248H172.316Z" fill="black"/>
<path d="M211.848 315.344C205.728 315.344 200.292 314.465 195.539 312.707C190.786 310.949 186.75 308.475 183.43 305.285C180.109 302.095 177.505 298.352 175.617 294.055C173.729 289.758 172.59 285.07 172.199 279.992L172.102 278.625H189.68L189.777 279.602C190.168 283.117 191.21 286.372 192.902 289.367C194.595 292.297 197.004 294.673 200.129 296.496C203.254 298.254 207.128 299.133 211.75 299.133C219.562 299.133 225.52 296.887 229.621 292.395C233.723 287.837 235.773 281.262 235.773 272.668V172.082H253.352V272.863C253.352 281.717 251.691 289.335 248.371 295.715C245.116 302.03 240.396 306.88 234.211 310.266C228.026 313.651 220.572 315.344 211.848 315.344Z" fill="black"/>
</svg>